<svg width="270" height="79" viewBox="0 0 270 79" fill="none" xmlns="http://www.w3.org/2000/svg">
    <path d="M80.575 12.462C82.513 12.462 84.332 12.802 86.032 13.482C87.732 14.162 89.211 15.199 90.469 16.593C91.761 17.953 92.764 19.67 93.478 21.744C94.226 23.784 94.6 26.181 94.6 28.935C94.6 31.621 94.226 33.984 93.478 36.024C92.73 38.064 91.71 39.781 90.418 41.175C89.126 42.569 87.613 43.623 85.879 44.337C84.145 45.051 82.309 45.408 80.371 45.408C78.433 45.408 76.614 45.068 74.914 44.388C73.214 43.708 71.718 42.688 70.426 41.328C69.168 39.934 68.165 38.217 67.417 36.177C66.703 34.103 66.346 31.689 66.346 28.935C66.346 26.249 66.72 23.886 67.468 21.846C68.216 19.806 69.236 18.089 70.528 16.695C71.82 15.301 73.333 14.247 75.067 13.533C76.801 12.819 78.637 12.462 80.575 12.462ZM69.1 28.935C69.1 31.383 69.406 33.508 70.018 35.31C70.664 37.078 71.514 38.557 72.568 39.747C73.622 40.937 74.829 41.821 76.189 42.399C77.583 42.977 79.045 43.266 80.575 43.266C82.071 43.266 83.499 42.977 84.859 42.399C86.219 41.821 87.409 40.937 88.429 39.747C89.483 38.557 90.316 37.078 90.928 35.31C91.54 33.508 91.846 31.383 91.846 28.935C91.846 26.453 91.523 24.311 90.877 22.509C90.265 20.673 89.432 19.177 88.378 18.021C87.324 16.865 86.1 16.015 84.706 15.471C83.346 14.893 81.901 14.604 80.371 14.604C78.875 14.604 77.447 14.893 76.087 15.471C74.727 16.049 73.52 16.933 72.466 18.123C71.446 19.313 70.63 20.809 70.018 22.611C69.406 24.379 69.1 26.487 69.1 28.935ZM98.5517 21.03H101.204L105.386 36.126L106.865 42.756H106.967L108.65 36.126L113.291 21.03H116.096L120.584 36.126L122.318 42.756H122.42L124.103 36.126L128.234 21.03H130.784L124.001 45H120.941L116.351 29.292L114.668 22.866L112.934 29.292L108.242 45H105.437L98.5517 21.03ZM154.261 33.015H137.176V33.729C137.176 36.721 137.975 39.067 139.573 40.767C141.205 42.433 143.415 43.266 146.203 43.266C148.413 43.266 150.487 42.892 152.425 42.144L153.037 44.184C152.153 44.558 151.082 44.847 149.824 45.051C148.6 45.289 147.342 45.408 146.05 45.408C144.452 45.408 142.939 45.17 141.511 44.694C140.117 44.218 138.893 43.487 137.839 42.501C136.785 41.481 135.952 40.206 135.34 38.676C134.728 37.112 134.422 35.242 134.422 33.066C134.422 31.196 134.677 29.496 135.187 27.966C135.697 26.436 136.428 25.144 137.38 24.09C138.332 23.002 139.454 22.169 140.746 21.591C142.038 21.013 143.483 20.724 145.081 20.724C146.441 20.724 147.682 20.979 148.804 21.489C149.96 21.965 150.929 22.662 151.711 23.58C152.527 24.498 153.156 25.603 153.598 26.895C154.04 28.187 154.261 29.615 154.261 31.179V33.015ZM151.507 30.873C151.507 29.887 151.388 28.918 151.15 27.966C150.912 26.98 150.521 26.113 149.977 25.365C149.467 24.617 148.787 24.022 147.937 23.58C147.121 23.104 146.118 22.866 144.928 22.866C142.854 22.866 141.12 23.563 139.726 24.957C138.366 26.351 137.55 28.323 137.278 30.873H151.507ZM161.18 45V21.03H162.914L163.526 25.824C164.104 24.294 165.09 23.07 166.484 22.152C167.878 21.2 169.442 20.724 171.176 20.724C171.992 20.724 172.706 20.792 173.318 20.928C173.93 21.064 174.406 21.217 174.746 21.387L174.236 23.733C173.828 23.563 173.369 23.41 172.859 23.274C172.349 23.138 171.754 23.07 171.074 23.07C170.088 23.07 169.153 23.24 168.269 23.58C167.419 23.92 166.654 24.447 165.974 25.161C165.328 25.875 164.801 26.776 164.393 27.864C164.019 28.918 163.832 30.176 163.832 31.638V45H161.18ZM179.023 23.121C180.621 22.271 182.083 21.659 183.409 21.285C184.769 20.911 186.214 20.724 187.744 20.724C188.832 20.724 189.852 20.877 190.804 21.183C191.79 21.489 192.64 21.982 193.354 22.662C194.102 23.342 194.68 24.243 195.088 25.365C195.53 26.453 195.751 27.796 195.751 29.394V45H193.915L193.354 41.838H193.252C192.266 43.028 191.11 43.929 189.784 44.541C188.458 45.119 186.979 45.408 185.347 45.408C184.225 45.408 183.188 45.255 182.236 44.949C181.284 44.609 180.451 44.133 179.737 43.521C179.057 42.909 178.513 42.178 178.105 41.328C177.731 40.444 177.544 39.475 177.544 38.421C177.544 37.163 177.799 36.058 178.309 35.106C178.819 34.154 179.533 33.372 180.451 32.76C181.369 32.114 182.457 31.638 183.715 31.332C185.007 31.026 186.435 30.873 187.999 30.873H193.099V29.292C193.099 26.98 192.589 25.331 191.569 24.345C190.549 23.359 189.223 22.866 187.591 22.866C186.605 22.866 185.466 23.019 184.174 23.325C182.882 23.631 181.505 24.192 180.043 25.008L179.023 23.121ZM193.099 32.964L188.866 33.015C187.336 33.049 186.027 33.219 184.939 33.525C183.851 33.797 182.95 34.171 182.236 34.647C181.556 35.089 181.063 35.633 180.757 36.279C180.451 36.891 180.298 37.554 180.298 38.268C180.298 39.152 180.451 39.917 180.757 40.563C181.063 41.175 181.471 41.685 181.981 42.093C182.491 42.501 183.086 42.807 183.766 43.011C184.48 43.181 185.228 43.266 186.01 43.266C186.622 43.266 187.251 43.198 187.897 43.062C188.543 42.892 189.172 42.654 189.784 42.348C190.43 42.008 191.042 41.6 191.62 41.124C192.198 40.614 192.691 40.002 193.099 39.288V32.964Z" fill="#303030"/>
    <path d="M57.41 53.98H55.198V58.292C55.198 58.7307 55.296 59.0293 55.492 59.188C55.688 59.3373 55.9587 59.412 56.304 59.412C56.5747 59.412 56.8267 59.3887 57.06 59.342C57.2933 59.286 57.4893 59.23 57.648 59.174L57.76 59.72C57.5733 59.7947 57.3447 59.86 57.074 59.916C56.8033 59.972 56.5047 60 56.178 60C55.618 60 55.1933 59.8693 54.904 59.608C54.6147 59.3373 54.47 58.9313 54.47 58.39V53.98H53.28V53.42H54.47V51.32H55.198V53.42H57.41V53.98ZM60.1456 60H59.4176V50.06H60.1456V54.302C60.4536 54.022 60.7942 53.7933 61.1676 53.616C61.5409 53.4293 61.9516 53.336 62.3996 53.336C62.7636 53.336 63.0809 53.392 63.3516 53.504C63.6222 53.6067 63.8416 53.756 64.0096 53.952C64.1869 54.1387 64.3176 54.3627 64.4016 54.624C64.4949 54.876 64.5416 55.156 64.5416 55.464V60H63.8136V55.688C63.8136 55.044 63.6689 54.5913 63.3796 54.33C63.0902 54.0593 62.7076 53.924 62.2316 53.924C61.8956 53.924 61.5456 54.0173 61.1816 54.204C60.8176 54.3813 60.4722 54.624 60.1456 54.932V60ZM71.926 56.71H67.236V56.906C67.236 57.7273 67.4554 58.3713 67.894 58.838C68.342 59.2953 68.9487 59.524 69.714 59.524C70.3207 59.524 70.89 59.4213 71.422 59.216L71.59 59.776C71.3474 59.8787 71.0534 59.958 70.708 60.014C70.372 60.0793 70.0267 60.112 69.672 60.112C69.2334 60.112 68.818 60.0467 68.426 59.916C68.0434 59.7853 67.7074 59.5847 67.418 59.314C67.1287 59.034 66.9 58.684 66.732 58.264C66.564 57.8347 66.48 57.3213 66.48 56.724C66.48 56.2107 66.55 55.744 66.69 55.324C66.83 54.904 67.0307 54.5493 67.292 54.26C67.5534 53.9613 67.8614 53.7327 68.216 53.574C68.5707 53.4153 68.9674 53.336 69.406 53.336C69.7794 53.336 70.12 53.406 70.428 53.546C70.7454 53.6767 71.0114 53.868 71.226 54.12C71.45 54.372 71.6227 54.6753 71.744 55.03C71.8654 55.3847 71.926 55.7767 71.926 56.206V56.71ZM71.17 56.122C71.17 55.8513 71.1374 55.5853 71.072 55.324C71.0067 55.0533 70.8994 54.8153 70.75 54.61C70.61 54.4047 70.4234 54.2413 70.19 54.12C69.966 53.9893 69.6907 53.924 69.364 53.924C68.7947 53.924 68.3187 54.1153 67.936 54.498C67.5627 54.8807 67.3387 55.422 67.264 56.122H71.17ZM77.1287 60V50.06H77.8567V60H77.1287ZM80.3755 60V53.42H81.1035V60H80.3755ZM80.7535 51.726C80.6041 51.726 80.4735 51.6793 80.3615 51.586C80.2588 51.4833 80.2075 51.3433 80.2075 51.166C80.2075 50.9793 80.2588 50.8347 80.3615 50.732C80.4641 50.6293 80.5901 50.578 80.7395 50.578C80.8795 50.578 81.0008 50.6293 81.1035 50.732C81.2155 50.8253 81.2715 50.97 81.2715 51.166C81.2715 51.3527 81.2201 51.4927 81.1175 51.586C81.0148 51.6793 80.8935 51.726 80.7535 51.726ZM85.8763 49.99C86.1376 49.99 86.4129 50.0273 86.7023 50.102C86.9916 50.1673 87.2436 50.2607 87.4583 50.382L87.3043 50.914C87.0989 50.8113 86.8843 50.732 86.6603 50.676C86.4363 50.6107 86.2356 50.578 86.0583 50.578C85.5916 50.578 85.2369 50.7087 84.9943 50.97C84.7609 51.222 84.6443 51.6653 84.6443 52.3V53.42H86.8983V53.98H84.6443V60H83.9163V53.98H82.7123V53.42H83.9163V52.16C83.9163 51.432 84.0889 50.8907 84.4343 50.536C84.7796 50.172 85.2603 49.99 85.8763 49.99ZM93.0135 56.71H88.3235V56.906C88.3235 57.7273 88.5429 58.3713 88.9815 58.838C89.4295 59.2953 90.0362 59.524 90.8015 59.524C91.4082 59.524 91.9775 59.4213 92.5095 59.216L92.6775 59.776C92.4349 59.8787 92.1409 59.958 91.7955 60.014C91.4595 60.0793 91.1142 60.112 90.7595 60.112C90.3209 60.112 89.9055 60.0467 89.5135 59.916C89.1309 59.7853 88.7949 59.5847 88.5055 59.314C88.2162 59.034 87.9875 58.684 87.8195 58.264C87.6515 57.8347 87.5675 57.3213 87.5675 56.724C87.5675 56.2107 87.6375 55.744 87.7775 55.324C87.9175 54.904 88.1182 54.5493 88.3795 54.26C88.6409 53.9613 88.9489 53.7327 89.3035 53.574C89.6582 53.4153 90.0549 53.336 90.4935 53.336C90.8669 53.336 91.2075 53.406 91.5155 53.546C91.8329 53.6767 92.0989 53.868 92.3135 54.12C92.5375 54.372 92.7102 54.6753 92.8315 55.03C92.9529 55.3847 93.0135 55.7767 93.0135 56.206V56.71ZM92.2575 56.122C92.2575 55.8513 92.2249 55.5853 92.1595 55.324C92.0942 55.0533 91.9869 54.8153 91.8375 54.61C91.6975 54.4047 91.5109 54.2413 91.2775 54.12C91.0535 53.9893 90.7782 53.924 90.4515 53.924C89.8822 53.924 89.4062 54.1153 89.0235 54.498C88.6502 54.8807 88.4262 55.422 88.3515 56.122H92.2575ZM101.534 54.246C101.068 54.0313 100.559 53.924 100.008 53.924C99.5042 53.924 99.1262 54.0313 98.8742 54.246C98.6222 54.4513 98.4962 54.7173 98.4962 55.044C98.4962 55.3707 98.6035 55.6227 98.8182 55.8C99.0328 55.968 99.4108 56.1313 99.9522 56.29L100.372 56.416C100.904 56.5747 101.31 56.808 101.59 57.116C101.87 57.424 102.01 57.802 102.01 58.25C102.01 58.5113 101.959 58.7587 101.856 58.992C101.754 59.216 101.604 59.412 101.408 59.58C101.212 59.748 100.965 59.8787 100.666 59.972C100.377 60.0653 100.041 60.112 99.6582 60.112C99.2382 60.112 98.8695 60.0747 98.5522 60C98.2348 59.9347 97.9548 59.846 97.7122 59.734L97.9082 59.16C98.1508 59.2813 98.4028 59.3747 98.6642 59.44C98.9255 59.496 99.2335 59.524 99.5882 59.524C100.12 59.524 100.531 59.4213 100.82 59.216C101.11 59.0107 101.254 58.7167 101.254 58.334C101.254 58.0353 101.147 57.7787 100.932 57.564C100.727 57.34 100.358 57.144 99.8262 56.976L99.3782 56.836C98.2862 56.4907 97.7402 55.9167 97.7402 55.114C97.7402 54.8527 97.7915 54.6147 97.8942 54.4C98.0062 54.176 98.1555 53.9893 98.3422 53.84C98.5382 53.6813 98.7668 53.56 99.0282 53.476C99.2988 53.3827 99.5975 53.336 99.9242 53.336C100.223 53.336 100.531 53.3593 100.848 53.406C101.166 53.4527 101.455 53.5413 101.716 53.672L101.534 54.246ZM108.865 56.71H104.175V56.906C104.175 57.7273 104.395 58.3713 104.833 58.838C105.281 59.2953 105.888 59.524 106.653 59.524C107.26 59.524 107.829 59.4213 108.361 59.216L108.529 59.776C108.287 59.8787 107.993 59.958 107.647 60.014C107.311 60.0793 106.966 60.112 106.611 60.112C106.173 60.112 105.757 60.0467 105.365 59.916C104.983 59.7853 104.647 59.5847 104.357 59.314C104.068 59.034 103.839 58.684 103.671 58.264C103.503 57.8347 103.419 57.3213 103.419 56.724C103.419 56.2107 103.489 55.744 103.629 55.324C103.769 54.904 103.97 54.5493 104.231 54.26C104.493 53.9613 104.801 53.7327 105.155 53.574C105.51 53.4153 105.907 53.336 106.345 53.336C106.719 53.336 107.059 53.406 107.367 53.546C107.685 53.6767 107.951 53.868 108.165 54.12C108.389 54.372 108.562 54.6753 108.683 55.03C108.805 55.3847 108.865 55.7767 108.865 56.206V56.71ZM108.109 56.122C108.109 55.8513 108.077 55.5853 108.011 55.324C107.946 55.0533 107.839 54.8153 107.689 54.61C107.549 54.4047 107.363 54.2413 107.129 54.12C106.905 53.9893 106.63 53.924 106.303 53.924C105.734 53.924 105.258 54.1153 104.875 54.498C104.502 54.8807 104.278 55.422 104.203 56.122H108.109ZM110.764 60V53.42H111.24L111.408 54.736C111.567 54.316 111.838 53.98 112.22 53.728C112.603 53.4667 113.032 53.336 113.508 53.336C113.732 53.336 113.928 53.3547 114.096 53.392C114.264 53.4293 114.395 53.4713 114.488 53.518L114.348 54.162C114.236 54.1153 114.11 54.0733 113.97 54.036C113.83 53.9987 113.667 53.98 113.48 53.98C113.21 53.98 112.953 54.0267 112.71 54.12C112.477 54.2133 112.267 54.358 112.08 54.554C111.903 54.75 111.758 54.9973 111.646 55.296C111.544 55.5853 111.492 55.9307 111.492 56.332V60H110.764ZM119.963 53.42H120.733L118.423 60H117.779L115.441 53.42H116.211L117.765 58.082L118.101 59.384H118.129L118.437 58.096L119.963 53.42ZM122.332 60V53.42H123.06V60H122.332ZM122.71 51.726C122.561 51.726 122.43 51.6793 122.318 51.586C122.216 51.4833 122.164 51.3433 122.164 51.166C122.164 50.9793 122.216 50.8347 122.318 50.732C122.421 50.6293 122.547 50.578 122.696 50.578C122.836 50.578 122.958 50.6293 123.06 50.732C123.172 50.8253 123.228 50.97 123.228 51.166C123.228 51.3527 123.177 51.4927 123.074 51.586C122.972 51.6793 122.85 51.726 122.71 51.726ZM128.337 59.58C128.636 59.58 128.906 59.5473 129.149 59.482C129.392 59.4167 129.62 59.3327 129.835 59.23L129.989 59.734C129.737 59.8647 129.471 59.958 129.191 60.014C128.92 60.0793 128.608 60.112 128.253 60.112C127.814 60.112 127.399 60.042 127.007 59.902C126.624 59.762 126.284 59.552 125.985 59.272C125.696 58.992 125.462 58.642 125.285 58.222C125.117 57.7927 125.033 57.2933 125.033 56.724C125.033 56.2013 125.112 55.73 125.271 55.31C125.43 54.89 125.654 54.5353 125.943 54.246C126.232 53.9473 126.568 53.7233 126.951 53.574C127.343 53.4153 127.772 53.336 128.239 53.336C128.528 53.336 128.808 53.3593 129.079 53.406C129.35 53.4433 129.644 53.5367 129.961 53.686L129.793 54.26C129.541 54.1293 129.298 54.0407 129.065 53.994C128.841 53.9473 128.608 53.924 128.365 53.924C127.982 53.924 127.632 53.9893 127.315 54.12C126.998 54.2507 126.727 54.4373 126.503 54.68C126.279 54.9133 126.102 55.2027 125.971 55.548C125.85 55.884 125.789 56.262 125.789 56.682C125.789 57.242 125.864 57.7087 126.013 58.082C126.162 58.446 126.354 58.74 126.587 58.964C126.83 59.188 127.1 59.3467 127.399 59.44C127.707 59.5333 128.02 59.58 128.337 59.58ZM136.379 56.71H131.689V56.906C131.689 57.7273 131.908 58.3713 132.347 58.838C132.795 59.2953 133.401 59.524 134.167 59.524C134.773 59.524 135.343 59.4213 135.875 59.216L136.043 59.776C135.8 59.8787 135.506 59.958 135.161 60.014C134.825 60.0793 134.479 60.112 134.125 60.112C133.686 60.112 133.271 60.0467 132.879 59.916C132.496 59.7853 132.16 59.5847 131.871 59.314C131.581 59.034 131.353 58.684 131.185 58.264C131.017 57.8347 130.933 57.3213 130.933 56.724C130.933 56.2107 131.003 55.744 131.143 55.324C131.283 54.904 131.483 54.5493 131.745 54.26C132.006 53.9613 132.314 53.7327 132.669 53.574C133.023 53.4153 133.42 53.336 133.859 53.336C134.232 53.336 134.573 53.406 134.881 53.546C135.198 53.6767 135.464 53.868 135.679 54.12C135.903 54.372 136.075 54.6753 136.197 55.03C136.318 55.3847 136.379 55.7767 136.379 56.206V56.71ZM135.623 56.122C135.623 55.8513 135.59 55.5853 135.525 55.324C135.459 55.0533 135.352 54.8153 135.203 54.61C135.063 54.4047 134.876 54.2413 134.643 54.12C134.419 53.9893 134.143 53.924 133.817 53.924C133.247 53.924 132.771 54.1153 132.389 54.498C132.015 54.8807 131.791 55.422 131.717 56.122H135.623Z" fill="#303030"/>
    <path d="M33.4127 36.5021C33.4127 40.3337 30.3175 43.4398 26.4993 43.4398C22.6812 43.4398 19.5859 40.3337 19.5859 36.5021C19.5859 32.6706 22.6812 29.5645 26.4993 29.5645C30.3175 29.5645 33.4127 32.6706 33.4127 36.5021Z" fill="white"/>
    <path fill-rule="evenodd" clip-rule="evenodd" d="M26.4993 40.9344C28.9386 40.9344 30.9161 38.95 30.9161 36.5021C30.9161 34.0543 28.9386 32.0699 26.4993 32.0699C24.06 32.0699 22.0826 34.0543 22.0826 36.5021C22.0826 38.95 24.06 40.9344 26.4993 40.9344ZM26.4993 43.4398C30.3175 43.4398 33.4127 40.3337 33.4127 36.5021C33.4127 32.6706 30.3175 29.5645 26.4993 29.5645C22.6812 29.5645 19.5859 32.6706 19.5859 36.5021C19.5859 40.3337 22.6812 43.4398 26.4993 43.4398Z" fill="#303030"/>
    <path d="M53.0026 36.5002C53.0026 40.3318 49.9073 43.4379 46.0892 43.4379C42.271 43.4379 39.1758 40.3318 39.1758 36.5002C39.1758 32.6686 42.271 29.5625 46.0892 29.5625C49.9073 29.5625 53.0026 32.6686 53.0026 36.5002Z" fill="#0A3CEB"/>
    <path fill-rule="evenodd" clip-rule="evenodd" d="M46.0892 40.9324C48.5285 40.9324 50.5059 38.948 50.5059 36.5002C50.5059 34.0523 48.5285 32.0679 46.0892 32.0679C43.6499 32.0679 41.6724 34.0523 41.6724 36.5002C41.6724 38.948 43.6499 40.9324 46.0892 40.9324ZM46.0892 43.4379C49.9073 43.4379 53.0026 40.3318 53.0026 36.5002C53.0026 32.6686 49.9073 29.5625 46.0892 29.5625C42.271 29.5625 39.1758 32.6686 39.1758 36.5002C39.1758 40.3318 42.271 43.4379 46.0892 43.4379Z" fill="#303030"/>
    <path fill-rule="evenodd" clip-rule="evenodd" d="M40.9035 37.7554H32.2617V35.25H40.9035V37.7554Z" fill="#303030"/>
    <path d="M0.00133263 36.4998C0.0013323 32.6682 3.09656 29.5621 6.91473 29.5621C10.7329 29.5621 13.8281 32.6682 13.8281 36.4998C13.8281 40.3314 10.7329 43.4375 6.91473 43.4375C3.09657 43.4375 0.00133297 40.3314 0.00133263 36.4998Z" fill="#AD00FF"/>
    <path fill-rule="evenodd" clip-rule="evenodd" d="M6.91473 32.0676C4.47543 32.0676 2.49799 34.052 2.49799 36.4998C2.49799 38.9477 4.47543 40.9321 6.91473 40.9321C9.35403 40.9321 11.3315 38.9477 11.3315 36.4998C11.3315 34.052 9.35402 32.0676 6.91473 32.0676ZM6.91473 29.5621C3.09657 29.5621 0.00133325 32.6682 0.00133359 36.4998C0.00133392 40.3314 3.09657 43.4375 6.91473 43.4375C10.7329 43.4375 13.8281 40.3314 13.8281 36.4998C13.8281 32.6682 10.7329 29.5621 6.91473 29.5621Z" fill="#303030"/>
    <path fill-rule="evenodd" clip-rule="evenodd" d="M12.0965 35.2485L20.7383 35.2485L20.7383 37.7539L12.0965 37.7539L12.0965 35.2485Z" fill="#303030"/>
    <path d="M39.7521 13.468C43.0588 15.3838 44.1917 19.6269 42.2826 22.9451C40.3735 26.2633 36.1454 27.4003 32.8387 25.4845C29.5321 23.5687 28.3992 19.3257 30.3083 16.0074C32.2173 12.6892 36.4455 11.5523 39.7521 13.468Z" fill="#2FB41A"/>
    <path fill-rule="evenodd" clip-rule="evenodd" d="M40.1204 21.6924C41.3401 19.5725 40.6163 16.8617 38.5038 15.6378C36.3913 14.4139 33.6901 15.1402 32.4704 17.2601C31.2508 19.38 31.9746 22.0908 34.0871 23.3147C36.1996 24.5386 38.9008 23.8123 40.1204 21.6924ZM42.2826 22.9451C44.1917 19.6269 43.0588 15.3838 39.7521 13.468C36.4455 11.5523 32.2173 12.6892 30.3083 16.0074C28.3992 19.3257 29.5321 23.5687 32.8387 25.4845C36.1454 27.4003 40.3735 26.2633 42.2826 22.9451Z" fill="#303030"/>
    <path fill-rule="evenodd" clip-rule="evenodd" d="M34.7838 24.6077L30.463 32.1179L28.3008 30.8652L32.6217 23.355L34.7838 24.6077Z" fill="#303030"/>
    <path d="M13.2479 59.532C9.94124 57.6162 8.80831 53.3731 10.7174 50.0549C12.6265 46.7367 16.8546 45.5997 20.1613 47.5155C23.4679 49.4313 24.6008 53.6743 22.6917 56.9926C20.7827 60.3108 16.5545 61.4477 13.2479 59.532Z" fill="#F8FD00"/>
    <path fill-rule="evenodd" clip-rule="evenodd" d="M12.8796 51.3076C11.6599 53.4275 12.3837 56.1383 14.4962 57.3622C16.6087 58.5861 19.3099 57.8598 20.5296 55.7399C21.7492 53.62 21.0254 50.9092 18.9129 49.6853C16.8004 48.4614 14.0992 49.1877 12.8796 51.3076ZM10.7174 50.0549C8.80831 53.3731 9.94124 57.6162 13.2479 59.532C16.5545 61.4477 20.7827 60.3108 22.6917 56.9926C24.6008 53.6743 23.4679 49.4313 20.1613 47.5155C16.8546 45.5997 12.6265 46.7367 10.7174 50.0549Z" fill="#303030"/>
    <path fill-rule="evenodd" clip-rule="evenodd" d="M18.2162 48.3904L22.537 40.8801L24.6992 42.1328L20.3783 49.6431L18.2162 48.3904Z" fill="#303030"/>
    <path d="M39.7504 59.5341C36.4438 61.4499 32.2156 60.313 30.3066 56.9947C28.3975 53.6765 29.5304 49.4335 32.837 47.5177C36.1437 45.6019 40.3718 46.7388 42.2809 50.057C44.19 53.3753 43.0571 57.6183 39.7504 59.5341Z" fill="#FF7A00"/>
    <path fill-rule="evenodd" clip-rule="evenodd" d="M32.4687 55.742C33.6884 57.8619 36.3896 58.5883 38.5021 57.3643C40.6146 56.1404 41.3384 53.4297 40.1187 51.3098C38.8991 49.1898 36.1979 48.4635 34.0854 49.6874C31.9729 50.9114 31.2491 53.6221 32.4687 55.742ZM30.3066 56.9947C32.2156 60.313 36.4438 61.4499 39.7504 59.5341C43.0571 57.6183 44.19 53.3753 42.2809 50.057C40.3718 46.7388 36.1437 45.6019 32.837 47.5177C29.5304 49.4335 28.3975 53.6765 30.3066 56.9947Z" fill="#303030"/>
    <path fill-rule="evenodd" clip-rule="evenodd" d="M32.6235 49.6458L28.3027 42.1355L30.4648 40.8828L34.7857 48.3931L32.6235 49.6458Z" fill="#303030"/>
    <path d="M13.2496 13.4698C16.5562 11.554 20.7844 12.691 22.6934 16.0092C24.6025 19.3274 23.4696 23.5705 20.163 25.4862C16.8563 27.402 12.6282 26.2651 10.7191 22.9469C8.81 19.6286 9.94294 15.3856 13.2496 13.4698Z" fill="#FF0000"/>
    <path fill-rule="evenodd" clip-rule="evenodd" d="M20.5313 17.2619C19.3116 15.142 16.6104 14.4157 14.4979 15.6396C12.3854 16.8635 11.6616 19.5742 12.8813 21.6942C14.1009 23.8141 16.8021 24.5404 18.9146 23.3165C21.0271 22.0925 21.7509 19.3818 20.5313 17.2619ZM22.6934 16.0092C20.7844 12.691 16.5562 11.554 13.2496 13.4698C9.94294 15.3856 8.81 19.6286 10.7191 22.9469C12.6282 26.2651 16.8563 27.402 20.163 25.4862C23.4696 23.5705 24.6025 19.3274 22.6934 16.0092Z" fill="#303030"/>
    <path fill-rule="evenodd" clip-rule="evenodd" d="M20.3804 23.3581L24.7012 30.8684L22.5391 32.1211L18.2182 24.6108L20.3804 23.3581Z" fill="#303030"/>
</svg>
